<?xml version="1.0" encoding="iso-8859-1"?>
<!-- Generator: Adobe Illustrator 16.0.0, SVG Export Plug-In . SVG Version: 6.00 Build 0)  -->
<!DOCTYPE svg PUBLIC "-//W3C//DTD SVG 1.1//EN" "http://www.w3.org/Graphics/SVG/1.1/DTD/svg11.dtd">
<svg version="1.1" id="Capa_1" xmlns="http://www.w3.org/2000/svg" xmlns:xlink="http://www.w3.org/1999/xlink" x="0px" y="0px"
	 width="93.842px" height="93.843px" viewBox="0 0 93.842 93.843" style="enable-background:new 0 0 93.842 93.843;"
	 xml:space="preserve">
<g>
	<path d="M74.042,11.379h-9.582v-0.693c0-1.768-1.438-3.205-3.206-3.205h-6.435V3.205C54.819,1.437,53.381,0,51.614,0H42.23
		c-1.768,0-3.206,1.438-3.206,3.205V7.48H32.59c-1.768,0-3.206,1.438-3.206,3.205v0.693h-9.582c-2.393,0-4.339,1.945-4.339,4.34
		v73.785c0,2.394,1.946,4.34,4.339,4.34h54.238c2.394,0,4.339-1.946,4.339-4.34V15.719C78.38,13.324,76.434,11.379,74.042,11.379z
		 M32.617,25.336h28.61c1.709,0,3.102-1.391,3.102-3.1v-3.438h7.554l0.021,68.164l-49.939,0.021V18.801h7.554v3.436
		C29.517,23.945,30.907,25.336,32.617,25.336z"/>
</g>
<g>
</g>
<g>
</g>
<g>
</g>
<g>
</g>
<g>
</g>
<g>
</g>
<g>
</g>
<g>
</g>
<g>
</g>
<g>
</g>
<g>
</g>
<g>
</g>
<g>
</g>
<g>
</g>
<g>
</g>
</svg>
