<?xml version="1.0" encoding="iso-8859-1"?>
<!-- Generator: Adobe Illustrator 16.0.0, SVG Export Plug-In . SVG Version: 6.00 Build 0)  -->
<!DOCTYPE svg PUBLIC "-//W3C//DTD SVG 1.1//EN" "http://www.w3.org/Graphics/SVG/1.1/DTD/svg11.dtd">
<svg version="1.1" id="Capa_1" xmlns="http://www.w3.org/2000/svg" xmlns:xlink="http://www.w3.org/1999/xlink" x="0px" y="0px"
	 width="600.112px" height="600.111px" viewBox="0 0 600.112 600.111" style="enable-background:new 0 0 600.112 600.111;"
	 xml:space="preserve">
<g>
	<g>
		<g>
			<path d="M537.423,52.563h-59.836V21.92c0-11.83-9.591-21.42-21.42-21.42c-11.83,0-21.42,9.59-21.42,21.42v30.642H165.364V21.92
				c0-11.83-9.59-21.42-21.42-21.42c-11.83,0-21.42,9.59-21.42,21.42v30.642H62.687c-32.058,0-58.14,26.082-58.14,58.14v430.77
				c0,32.059,26.082,58.139,58.14,58.139h474.736c32.059,0,58.141-26.08,58.141-58.139v-430.77
				C595.564,78.645,569.482,52.563,537.423,52.563z M47.387,110.703c0-8.451,6.85-15.3,15.3-15.3h59.837v24.443
				c0,11.83,9.59,21.42,21.42,21.42s21.42-9.59,21.42-21.42V95.403h269.383v24.443c0,11.83,9.59,21.42,21.42,21.42
				c11.829,0,21.42-9.59,21.42-21.42V95.403h59.836c8.45,0,15.3,6.85,15.3,15.3v53.856H47.387V110.703z M552.723,541.473
				c0,8.449-6.85,15.301-15.3,15.301H62.687c-8.45,0-15.3-6.852-15.3-15.301V207.399h505.336V541.473z"/>
			<path d="M537.423,600.111H62.687c-32.334,0-58.64-26.306-58.64-58.639v-430.77c0-32.334,26.306-58.64,58.64-58.64h59.336V21.92
				c0-12.087,9.833-21.92,21.92-21.92c12.086,0,21.92,9.833,21.92,21.92v30.142h268.384V21.92c0-12.087,9.833-21.92,21.92-21.92
				s21.92,9.833,21.92,21.92v30.143h59.336c32.335,0,58.641,26.306,58.641,58.64v430.77
				C596.064,573.806,569.758,600.111,537.423,600.111z M62.687,53.062c-31.783,0-57.64,25.857-57.64,57.64v430.77
				c0,31.782,25.857,57.639,57.64,57.639h474.736c31.783,0,57.641-25.856,57.641-57.639v-430.77c0-31.783-25.857-57.64-57.641-57.64
				h-60.336V21.92c0-11.536-9.385-20.92-20.92-20.92s-20.92,9.385-20.92,20.92v31.142H164.864V21.92
				c0-11.536-9.385-20.92-20.92-20.92c-11.536,0-20.92,9.385-20.92,20.92v31.142H62.687z M537.423,557.273H62.687
				c-8.712,0-15.8-7.088-15.8-15.801V206.899h506.336v334.574C553.223,550.186,546.135,557.273,537.423,557.273z M47.887,207.899
				v333.574c0,8.161,6.639,14.801,14.8,14.801h474.736c8.16,0,14.8-6.64,14.8-14.801V207.899H47.887z M553.223,165.059H46.887
				v-54.356c0-8.712,7.088-15.8,15.8-15.8h60.337v24.943c0,11.535,9.385,20.92,20.92,20.92s20.92-9.385,20.92-20.92V94.903h270.383
				v24.943c0,11.535,9.385,20.92,20.92,20.92s20.92-9.385,20.92-20.92V94.903h60.336c8.712,0,15.8,7.088,15.8,15.8V165.059z
				 M47.887,164.059h504.336v-53.356c0-8.161-6.64-14.8-14.8-14.8h-59.336v23.943c0,12.087-9.833,21.92-21.92,21.92
				s-21.92-9.833-21.92-21.92V95.903H165.864v23.943c0,12.087-9.833,21.92-21.92,21.92s-21.92-9.833-21.92-21.92V95.903H62.687
				c-8.161,0-14.8,6.639-14.8,14.8V164.059z"/>
		</g>
	</g>
</g>
<g>
</g>
<g>
</g>
<g>
</g>
<g>
</g>
<g>
</g>
<g>
</g>
<g>
</g>
<g>
</g>
<g>
</g>
<g>
</g>
<g>
</g>
<g>
</g>
<g>
</g>
<g>
</g>
<g>
</g>
</svg>
