<?xml version="1.0" encoding="iso-8859-1"?>
<!-- Generator: Adobe Illustrator 19.0.0, SVG Export Plug-In . SVG Version: 6.00 Build 0)  -->
<svg version="1.1" id="Layer_1" xmlns="http://www.w3.org/2000/svg" xmlns:xlink="http://www.w3.org/1999/xlink" x="0px" y="0px"
	 viewBox="0 0 65.636 65.636" style="enable-background:new 0 0 65.636 65.636;" xml:space="preserve">
<g>
	<g>
		<path style="fill:#008218;" d="M33.487,26.488c0,0,2.424-16.17-12.936-20.617C20.553,5.871,18.127,21.636,33.487,26.488z"/>
	</g>
	<g>
		<path style="fill:#008218;" d="M32.797,26.488c0,0-2.425-16.17,12.936-20.617C45.731,5.871,48.158,21.636,32.797,26.488z"/>
	</g>
	<g>
		<path style="fill:#008218;" d="M33.307,24.332c0,0-10.406-12.61,0.47-24.332C33.777,0,43.976,12.264,33.307,24.332z"/>
	</g>
	<g>
		<path style="fill:#FF4A44;" d="M62.433,38.623c0,14.919-13.26,27.013-29.616,27.013c-16.358,0-29.615-12.094-29.615-27.013
			c0-11.921,7.154-21.461,19.236-23.671c5.822-1.064,10.379,3.492,10.379,3.492s4.197-4.353,9.762-3.58
			C54.296,16.491,62.433,25.568,62.433,38.623z"/>
	</g>
</g>
<g>
</g>
<g>
</g>
<g>
</g>
<g>
</g>
<g>
</g>
<g>
</g>
<g>
</g>
<g>
</g>
<g>
</g>
<g>
</g>
<g>
</g>
<g>
</g>
<g>
</g>
<g>
</g>
<g>
</g>
</svg>
